<svg width="133" height="78" viewBox="0 0 133 78" fill="none" xmlns="http://www.w3.org/2000/svg">
<path d="M124.198 0.0173261H129.598C130.606 0.0173261 131.434 0.341326 132.082 0.989326C132.694 1.63733 133 2.50133 133 3.58133V31.6613H120.904C120.364 28.7453 119.23 26.0453 117.502 23.5613C115.738 21.0413 113.542 18.8633 110.914 17.0273C108.25 15.1553 105.226 13.6973 101.842 12.6533C98.458 11.6093 94.858 11.0873 91.042 11.0873C86.506 11.0873 82.546 11.8253 79.162 13.3013C75.778 14.7413 72.952 16.7033 70.684 19.1873C68.416 21.6353 66.724 24.4793 65.608 27.7193C64.456 30.9593 63.88 34.3793 63.88 37.9793C63.88 41.5793 64.456 44.9993 65.608 48.2393C66.724 51.4793 68.416 54.3413 70.684 56.8253C72.952 59.2733 75.778 61.2353 79.162 62.7113C82.546 64.1513 86.506 64.8713 91.042 64.8713C94.858 64.8713 98.458 64.3493 101.842 63.3053C105.226 62.2613 108.25 60.8213 110.914 58.9853C113.542 57.1133 115.738 54.9353 117.502 52.4513C119.23 49.9313 120.364 47.2133 120.904 44.2973H133V72.3773C133 73.4573 132.694 74.3213 132.082 74.9693C131.434 75.6173 130.606 75.9413 129.598 75.9413H124.198V60.4973C124.198 59.2013 124.27 57.8693 124.414 56.5013C124.558 55.0973 124.72 53.7113 124.9 52.3433C123.784 55.6553 122.164 58.7153 120.04 61.5233C117.88 64.3313 115.342 66.7613 112.426 68.8133C109.474 70.8293 106.18 72.4133 102.544 73.5653C98.908 74.7173 95.038 75.2933 90.934 75.2933C85.534 75.2933 80.62 74.3213 76.192 72.3773C71.728 70.3973 67.912 67.7333 64.744 64.3853C61.576 61.0013 59.128 57.0413 57.4 52.5053C55.672 47.9693 54.808 43.1273 54.808 37.9793C54.808 32.8313 55.672 27.9893 57.4 23.4533C59.128 18.9173 61.576 14.9753 64.744 11.6273C67.912 8.24332 71.728 5.57932 76.192 3.63532C80.62 1.65532 85.534 0.665324 90.934 0.665324C95.038 0.665324 98.908 1.24132 102.544 2.39332C106.18 3.54532 109.474 5.14733 112.426 7.19933C115.342 9.21533 117.88 11.6273 120.04 14.4353C122.164 17.2433 123.784 20.3033 124.9 23.6153C124.72 22.2473 124.558 20.8793 124.414 19.5113C124.27 18.1073 124.198 16.7573 124.198 15.4613V0.0173261Z" fill="#0CC683"/>
<path d="M57.366 52.304V56.192C57.366 57.02 56.79 57.794 55.638 58.514C54.522 59.198 52.92 59.54 50.832 59.54C49.32 59.54 47.862 59.324 46.458 58.892C45.09 58.46 43.83 57.794 42.678 56.894C41.562 55.958 40.59 54.806 39.762 53.438C38.934 52.034 38.34 50.378 37.98 48.47C35.82 51.71 33.354 54.23 30.582 56.03C27.846 57.794 24.75 58.676 21.294 58.676C18.594 58.676 16.236 58.262 14.22 57.434C12.24 56.57 10.566 55.328 9.198 53.708C9.414 55.184 9.558 56.696 9.63 58.244C9.738 59.756 9.792 61.16 9.792 62.456V77.522H4.986C3.618 77.522 2.556 77.162 1.8 76.442C1.08 75.722 0.72 74.714 0.72 73.418V4.298H10.386V37.4C10.386 41.504 11.322 44.762 13.194 47.174C15.102 49.55 17.982 50.738 21.834 50.738C25.146 50.738 28.026 49.856 30.474 48.092C32.958 46.292 35.028 43.772 36.684 40.532V4.298H46.296V44.204C46.296 47.012 47.016 49.064 48.456 50.36C49.896 51.656 51.804 52.304 54.18 52.304H57.366Z" fill="#06507A"/>
</svg>
